# MagicaVoxel @ Ephtracy

# group
o 

# material
mtllib column.mtl
usemtl palette

# normals
vn -1 0 0
vn 1 0 0
vn 0 0 1
vn 0 0 -1
vn 0 -1 0
vn 0 1 0

# texcoords
vt 0.0644531 0.5
vt 0.0996094 0.5
vt 0.103516 0.5

# verts
v -0.4 0 0.4
v -0.4 0 -0.4
v -0.4 0.1 0.4
v -0.4 0.1 -0.4
v -0.2 0.1 0.2
v -0.2 0.1 -0.2
v -0.2 0.2 0.2
v -0.2 0.2 -0.2
v -0.2 0.7 0.2
v -0.2 0.7 -0.2
v -0.2 0.8 0.2
v -0.2 0.8 -0.2
v -0.1 0.2 0.1
v -0.1 0.2 -0.1
v -0.1 0.7 0.1
v -0.1 0.7 -0.1
v 0.1 0.2 0.1
v 0.1 0.2 -0.1
v 0.1 0.7 0.1
v 0.1 0.7 -0.1
v 0.2 0.1 0.2
v 0.2 0.1 -0.2
v 0.2 0.2 0.2
v 0.2 0.2 -0.2
v 0.2 0.7 0.2
v 0.2 0.7 -0.2
v 0.2 0.8 0.2
v 0.2 0.8 -0.2
v 0.4 0 0.4
v 0.4 0 -0.4
v 0.4 0.1 0.4
v 0.4 0.1 -0.4
v -0.4 0 0.4
v -0.4 0.1 0.4
v 0.4 0 0.4
v 0.4 0.1 0.4
v -0.2 0.1 0.2
v -0.2 0.2 0.2
v -0.2 0.7 0.2
v -0.2 0.8 0.2
v 0.2 0.1 0.2
v 0.2 0.2 0.2
v 0.2 0.7 0.2
v 0.2 0.8 0.2
v -0.1 0.2 0.1
v -0.1 0.7 0.1
v 0.1 0.2 0.1
v 0.1 0.7 0.1
v -0.1 0.2 -0.1
v -0.1 0.7 -0.1
v 0.1 0.2 -0.1
v 0.1 0.7 -0.1
v -0.2 0.1 -0.2
v -0.2 0.2 -0.2
v -0.2 0.7 -0.2
v -0.2 0.8 -0.2
v 0.2 0.1 -0.2
v 0.2 0.2 -0.2
v 0.2 0.7 -0.2
v 0.2 0.8 -0.2
v -0.4 0 -0.4
v -0.4 0.1 -0.4
v 0.4 0 -0.4
v 0.4 0.1 -0.4
v -0.4 0 0.4
v 0.4 0 0.4
v -0.4 0 -0.4
v 0.4 0 -0.4
v -0.2 0.7 0.2
v 0.2 0.7 0.2
v -0.1 0.7 0.1
v 0.1 0.7 0.1
v -0.1 0.7 -0.1
v 0.1 0.7 -0.1
v -0.2 0.7 -0.2
v 0.2 0.7 -0.2
v -0.4 0.1 0.4
v 0.4 0.1 0.4
v -0.2 0.1 0.2
v 0.2 0.1 0.2
v -0.2 0.1 -0.2
v 0.2 0.1 -0.2
v -0.4 0.1 -0.4
v 0.4 0.1 -0.4
v -0.2 0.2 0.2
v 0.2 0.2 0.2
v -0.1 0.2 0.1
v 0.1 0.2 0.1
v -0.1 0.2 -0.1
v 0.1 0.2 -0.1
v -0.2 0.2 -0.2
v 0.2 0.2 -0.2
v -0.2 0.8 0.2
v 0.2 0.8 0.2
v -0.2 0.8 -0.2
v 0.2 0.8 -0.2

# faces
f 3/1/1 2/1/1 1/1/1
f 4/1/1 2/1/1 3/1/1
f 7/3/1 6/3/1 5/3/1
f 8/3/1 6/3/1 7/3/1
f 11/3/1 10/3/1 9/3/1
f 12/3/1 10/3/1 11/3/1
f 15/2/1 14/2/1 13/2/1
f 16/2/1 14/2/1 15/2/1
f 17/2/2 18/2/2 19/2/2
f 19/2/2 18/2/2 20/2/2
f 21/3/2 22/3/2 23/3/2
f 23/3/2 22/3/2 24/3/2
f 25/3/2 26/3/2 27/3/2
f 27/3/2 26/3/2 28/3/2
f 29/1/2 30/1/2 31/1/2
f 31/1/2 30/1/2 32/1/2
f 35/1/3 34/1/3 33/1/3
f 36/1/3 34/1/3 35/1/3
f 41/3/3 38/3/3 37/3/3
f 42/3/3 38/3/3 41/3/3
f 43/3/3 40/3/3 39/3/3
f 44/3/3 40/3/3 43/3/3
f 47/2/3 46/2/3 45/2/3
f 48/2/3 46/2/3 47/2/3
f 49/2/4 50/2/4 51/2/4
f 51/2/4 50/2/4 52/2/4
f 53/3/4 54/3/4 57/3/4
f 57/3/4 54/3/4 58/3/4
f 55/3/4 56/3/4 59/3/4
f 59/3/4 56/3/4 60/3/4
f 61/1/4 62/1/4 63/1/4
f 63/1/4 62/1/4 64/1/4
f 67/1/5 66/1/5 65/1/5
f 68/1/5 66/1/5 67/1/5
f 71/3/5 70/3/5 69/3/5
f 72/3/5 70/3/5 71/3/5
f 73/3/5 71/3/5 69/3/5
f 74/3/5 70/3/5 72/3/5
f 75/3/5 73/3/5 69/3/5
f 75/3/5 74/3/5 73/3/5
f 76/3/5 70/3/5 74/3/5
f 76/3/5 74/3/5 75/3/5
f 77/1/6 78/1/6 79/1/6
f 79/1/6 78/1/6 80/1/6
f 77/1/6 79/1/6 81/1/6
f 80/1/6 78/1/6 82/1/6
f 77/1/6 81/1/6 83/1/6
f 81/1/6 82/1/6 83/1/6
f 82/1/6 78/1/6 84/1/6
f 83/1/6 82/1/6 84/1/6
f 85/3/6 86/3/6 87/3/6
f 87/3/6 86/3/6 88/3/6
f 85/3/6 87/3/6 89/3/6
f 88/3/6 86/3/6 90/3/6
f 85/3/6 89/3/6 91/3/6
f 89/3/6 90/3/6 91/3/6
f 90/3/6 86/3/6 92/3/6
f 91/3/6 90/3/6 92/3/6
f 93/3/6 94/3/6 95/3/6
f 95/3/6 94/3/6 96/3/6
