# MagicaVoxel @ Ephtracy

# group
o 

# material
mtllib cow.mtl
usemtl palette

# normals
vn -1 0 0
vn 1 0 0
vn 0 0 1
vn 0 0 -1
vn 0 -1 0
vn 0 1 0

# texcoords
vt 0.0644531 0.5
vt 0.0917969 0.5
vt 0.0957031 0.5
vt 0.0996094 0.5

# verts
v -0.4 0 0.4
v -0.4 0 -0.4
v -0.4 0.1 0.4
v -0.4 0.1 -0.4
v -0.2 0.1 0.2
v -0.2 0.1 0.1
v -0.2 0.1 -0.2
v -0.2 0.1 -0.3
v -0.2 0.2 0.1
v -0.2 0.2 -0.1
v -0.2 0.2 -0.2
v -0.2 0.3 0.1
v -0.2 0.3 0
v -0.2 0.3 -0.1
v -0.2 0.3 -0.2
v -0.2 0.3 -0.3
v -0.2 0.4 0.2
v -0.2 0.4 0.1
v -0.2 0.4 0
v -0.2 0.4 -0.2
v -0.2 0.4 -0.3
v -0.1 0.3 0.3
v -0.1 0.3 0.2
v -0.1 0.4 0.2
v -0.1 0.4 0.1
v -0.1 0.5 0.3
v -0.1 0.5 0.1
v 0.1 0.1 0.2
v 0.1 0.1 0.1
v 0.1 0.1 -0.2
v 0.1 0.1 -0.3
v 0.1 0.2 0.2
v 0.1 0.2 0.1
v 0.1 0.2 -0.2
v 0.1 0.2 -0.3
v -0.1 0.1 0.2
v -0.1 0.1 0.1
v -0.1 0.1 -0.2
v -0.1 0.1 -0.3
v -0.1 0.2 0.2
v -0.1 0.2 0.1
v -0.1 0.2 -0.2
v -0.1 0.2 -0.3
v 0.1 0.3 0.3
v 0.1 0.3 0.2
v 0.1 0.4 0.2
v 0.1 0.4 0.1
v 0.1 0.5 0.3
v 0.1 0.5 0.1
v 0.2 0.1 0.2
v 0.2 0.1 0.1
v 0.2 0.1 -0.2
v 0.2 0.1 -0.3
v 0.2 0.2 0.2
v 0.2 0.2 0.1
v 0.2 0.2 -0.2
v 0.2 0.3 0.2
v 0.2 0.3 0.1
v 0.2 0.3 0
v 0.2 0.3 -0.1
v 0.2 0.3 -0.2
v 0.2 0.3 -0.3
v 0.2 0.4 0.2
v 0.2 0.4 0
v 0.2 0.4 -0.1
v 0.2 0.4 -0.2
v 0.2 0.4 -0.3
v 0.4 0 0.4
v 0.4 0 -0.4
v 0.4 0.1 0.4
v 0.4 0.1 -0.4
v -0.4 0 0.4
v -0.4 0.1 0.4
v 0.4 0 0.4
v 0.4 0.1 0.4
v -0.1 0.3 0.3
v -0.1 0.5 0.3
v 0.1 0.3 0.3
v 0.1 0.5 0.3
v -0.2 0.1 0.2
v -0.2 0.4 0.2
v -0.1 0.1 0.2
v -0.1 0.2 0.2
v -0.1 0.3 0.2
v -0.1 0.4 0.2
v 0.1 0.1 0.2
v 0.1 0.2 0.2
v 0.1 0.3 0.2
v 0.1 0.4 0.2
v 0.2 0.1 0.2
v 0.2 0.2 0.2
v 0.2 0.3 0.2
v 0.2 0.4 0.2
v -0.2 0.1 -0.2
v -0.2 0.2 -0.2
v -0.1 0.1 -0.2
v -0.1 0.2 -0.2
v 0.1 0.1 -0.2
v 0.1 0.2 -0.2
v 0.2 0.1 -0.2
v 0.2 0.2 -0.2
v -0.2 0.1 0.1
v -0.2 0.2 0.1
v -0.1 0.1 0.1
v -0.1 0.2 0.1
v -0.1 0.4 0.1
v -0.1 0.5 0.1
v 0.1 0.1 0.1
v 0.1 0.2 0.1
v 0.1 0.4 0.1
v 0.1 0.5 0.1
v 0.2 0.1 0.1
v 0.2 0.2 0.1
v -0.2 0.1 -0.3
v -0.2 0.3 -0.3
v -0.2 0.4 -0.3
v -0.1 0.1 -0.3
v -0.1 0.2 -0.3
v -0.1 0.3 -0.3
v -0.1 0.4 -0.3
v 0 0.2 -0.3
v 0 0.3 -0.3
v 0.1 0.1 -0.3
v 0.1 0.2 -0.3
v 0.1 0.3 -0.3
v 0.1 0.4 -0.3
v 0.2 0.1 -0.3
v 0.2 0.3 -0.3
v 0.2 0.4 -0.3
v -0.4 0 -0.4
v -0.4 0.1 -0.4
v 0.4 0 -0.4
v 0.4 0.1 -0.4
v -0.4 0 0.4
v 0.4 0 0.4
v -0.4 0 -0.4
v 0.4 0 -0.4
v -0.1 0.2 0.2
v 0.1 0.2 0.2
v -0.2 0.2 0.1
v -0.1 0.2 0.1
v 0.1 0.2 0.1
v 0.2 0.2 0.1
v -0.2 0.2 -0.1
v -0.1 0.2 -0.1
v -0.2 0.2 -0.2
v -0.1 0.2 -0.2
v 0 0.2 -0.2
v 0.1 0.2 -0.2
v 0.2 0.2 -0.2
v -0.1 0.2 -0.3
v 0 0.2 -0.3
v 0.1 0.2 -0.3
v -0.1 0.3 0.3
v 0.1 0.3 0.3
v -0.1 0.3 0.2
v 0.1 0.3 0.2
v -0.4 0.1 0.4
v 0.4 0.1 0.4
v -0.2 0.1 0.2
v -0.1 0.1 0.2
v 0.1 0.1 0.2
v 0.2 0.1 0.2
v -0.2 0.1 0.1
v -0.1 0.1 0.1
v 0.1 0.1 0.1
v 0.2 0.1 0.1
v -0.2 0.1 -0.2
v -0.1 0.1 -0.2
v 0.1 0.1 -0.2
v 0.2 0.1 -0.2
v -0.2 0.1 -0.3
v -0.1 0.1 -0.3
v 0.1 0.1 -0.3
v 0.2 0.1 -0.3
v -0.4 0.1 -0.4
v 0.4 0.1 -0.4
v -0.2 0.4 0.2
v -0.1 0.4 0.2
v 0.1 0.4 0.2
v 0.2 0.4 0.2
v -0.2 0.4 0.1
v -0.1 0.4 0.1
v 0.1 0.4 0.1
v -0.2 0.4 0
v -0.1 0.4 0
v 0.1 0.4 0
v 0.2 0.4 0
v -0.1 0.4 -0.1
v 0 0.4 -0.1
v 0.1 0.4 -0.1
v 0.2 0.4 -0.1
v -0.2 0.4 -0.2
v -0.1 0.4 -0.2
v 0 0.4 -0.2
v 0.1 0.4 -0.2
v 0.2 0.4 -0.2
v -0.2 0.4 -0.3
v -0.1 0.4 -0.3
v 0.1 0.4 -0.3
v 0.2 0.4 -0.3
v -0.1 0.5 0.3
v 0.1 0.5 0.3
v -0.1 0.5 0.1
v 0.1 0.5 0.1

# faces
f 3/1/1 2/1/1 1/1/1
f 4/1/1 2/1/1 3/1/1
f 9/2/1 6/2/1 5/2/1
f 11/2/1 8/2/1 7/2/1
f 12/2/1 10/2/1 9/2/1
f 12/2/1 9/2/1 5/2/1
f 13/2/1 10/2/1 12/2/1
f 14/4/1 11/4/1 10/4/1
f 14/2/1 10/2/1 13/2/1
f 15/2/1 8/2/1 11/2/1
f 15/4/1 11/4/1 14/4/1
f 16/2/1 8/2/1 15/2/1
f 17/2/1 12/2/1 5/2/1
f 18/4/1 13/4/1 12/4/1
f 18/2/1 12/2/1 17/2/1
f 19/2/1 14/2/1 13/2/1
f 19/4/1 13/4/1 18/4/1
f 19/2/1 15/2/1 14/2/1
f 20/4/1 16/4/1 15/4/1
f 20/2/1 15/2/1 19/2/1
f 21/4/1 16/4/1 20/4/1
f 24/3/1 23/3/1 22/3/1
f 26/3/1 24/3/1 22/3/1
f 26/3/1 25/3/1 24/3/1
f 27/3/1 25/3/1 26/3/1
f 32/2/1 29/2/1 28/2/1
f 33/2/1 29/2/1 32/2/1
f 34/2/1 31/2/1 30/2/1
f 35/2/1 31/2/1 34/2/1
f 36/2/2 37/2/2 40/2/2
f 40/2/2 37/2/2 41/2/2
f 38/2/2 39/2/2 42/2/2
f 42/2/2 39/2/2 43/2/2
f 44/3/2 45/3/2 46/3/2
f 44/3/2 46/3/2 48/3/2
f 46/3/2 47/3/2 48/3/2
f 48/3/2 47/3/2 49/3/2
f 50/2/2 51/2/2 54/2/2
f 54/2/2 51/2/2 55/2/2
f 52/2/2 53/2/2 56/2/2
f 54/4/2 55/4/2 57/4/2
f 55/2/2 56/2/2 58/2/2
f 57/4/2 55/4/2 58/4/2
f 58/2/2 56/2/2 59/2/2
f 59/2/2 56/2/2 60/2/2
f 56/2/2 53/2/2 61/2/2
f 60/2/2 56/2/2 61/2/2
f 61/2/2 53/2/2 62/2/2
f 57/2/2 58/2/2 63/2/2
f 58/2/2 59/2/2 63/2/2
f 59/4/2 60/4/2 64/4/2
f 63/2/2 59/2/2 64/2/2
f 60/2/2 61/2/2 65/2/2
f 64/4/2 60/4/2 65/4/2
f 61/4/2 62/4/2 66/4/2
f 65/2/2 61/2/2 66/2/2
f 66/4/2 62/4/2 67/4/2
f 68/1/2 69/1/2 70/1/2
f 70/1/2 69/1/2 71/1/2
f 74/1/3 73/1/3 72/1/3
f 75/1/3 73/1/3 74/1/3
f 78/3/3 77/3/3 76/3/3
f 79/3/3 77/3/3 78/3/3
f 82/2/3 81/2/3 80/2/3
f 83/2/3 81/2/3 82/2/3
f 84/2/3 81/2/3 83/2/3
f 85/2/3 81/2/3 84/2/3
f 87/2/3 84/2/3 83/2/3
f 88/2/3 84/2/3 87/2/3
f 90/2/3 87/2/3 86/2/3
f 91/4/3 88/4/3 87/4/3
f 91/2/3 87/2/3 90/2/3
f 92/2/3 89/2/3 88/2/3
f 92/4/3 88/4/3 91/4/3
f 93/2/3 89/2/3 92/2/3
f 96/2/3 95/2/3 94/2/3
f 97/2/3 95/2/3 96/2/3
f 100/2/3 99/2/3 98/2/3
f 101/2/3 99/2/3 100/2/3
f 102/2/4 103/2/4 104/2/4
f 104/2/4 103/2/4 105/2/4
f 106/3/4 107/3/4 110/3/4
f 110/3/4 107/3/4 111/3/4
f 108/2/4 109/2/4 112/2/4
f 112/2/4 109/2/4 113/2/4
f 114/2/4 115/2/4 117/2/4
f 117/2/4 115/2/4 118/2/4
f 115/4/4 116/4/4 119/4/4
f 118/2/4 115/2/4 119/2/4
f 119/4/4 116/4/4 120/4/4
f 118/4/4 119/4/4 121/4/4
f 119/2/4 120/2/4 122/2/4
f 121/4/4 119/4/4 122/4/4
f 121/2/4 122/2/4 124/2/4
f 122/2/4 120/2/4 125/2/4
f 124/2/4 122/2/4 125/2/4
f 125/2/4 120/2/4 126/2/4
f 123/2/4 124/2/4 127/2/4
f 124/2/4 125/2/4 127/2/4
f 125/4/4 126/4/4 128/4/4
f 127/2/4 125/2/4 128/2/4
f 128/4/4 126/4/4 129/4/4
f 130/1/4 131/1/4 132/1/4
f 132/1/4 131/1/4 133/1/4
f 136/1/5 135/1/5 134/1/5
f 137/1/5 135/1/5 136/1/5
f 141/2/5 139/2/5 138/2/5
f 142/2/5 139/2/5 141/2/5
f 144/2/5 141/2/5 140/2/5
f 144/2/5 143/2/5 142/2/5
f 144/2/5 142/2/5 141/2/5
f 145/2/5 143/2/5 144/2/5
f 146/4/5 145/4/5 144/4/5
f 147/2/5 143/2/5 145/2/5
f 147/4/5 145/4/5 146/4/5
f 148/2/5 143/2/5 147/2/5
f 149/2/5 143/2/5 148/2/5
f 150/2/5 143/2/5 149/2/5
f 151/4/5 148/4/5 147/4/5
f 152/2/5 149/2/5 148/2/5
f 152/4/5 148/4/5 151/4/5
f 153/2/5 149/2/5 152/2/5
f 156/3/5 155/3/5 154/3/5
f 157/3/5 155/3/5 156/3/5
f 158/1/6 159/1/6 160/1/6
f 160/1/6 159/1/6 161/1/6
f 161/1/6 159/1/6 162/1/6
f 162/1/6 159/1/6 163/1/6
f 158/1/6 160/1/6 164/1/6
f 161/1/6 162/1/6 165/1/6
f 165/1/6 162/1/6 166/1/6
f 163/1/6 159/1/6 167/1/6
f 165/1/6 166/1/6 168/1/6
f 166/1/6 167/1/6 168/1/6
f 158/1/6 164/1/6 168/1/6
f 164/1/6 165/1/6 168/1/6
f 168/1/6 167/1/6 169/1/6
f 169/1/6 167/1/6 170/1/6
f 167/1/6 159/1/6 171/1/6
f 170/1/6 167/1/6 171/1/6
f 158/1/6 168/1/6 172/1/6
f 169/1/6 170/1/6 173/1/6
f 173/1/6 170/1/6 174/1/6
f 171/1/6 159/1/6 175/1/6
f 158/1/6 172/1/6 176/1/6
f 174/1/6 175/1/6 176/1/6
f 173/1/6 174/1/6 176/1/6
f 172/1/6 173/1/6 176/1/6
f 175/1/6 159/1/6 177/1/6
f 176/1/6 175/1/6 177/1/6
f 178/2/6 179/2/6 182/2/6
f 182/2/6 179/2/6 183/2/6
f 180/2/6 181/2/6 184/2/6
f 182/4/6 183/4/6 185/4/6
f 183/2/6 184/2/6 186/2/6
f 185/4/6 183/4/6 186/4/6
f 184/2/6 181/2/6 187/2/6
f 186/2/6 184/2/6 187/2/6
f 187/2/6 181/2/6 188/2/6
f 185/2/6 186/2/6 189/2/6
f 186/2/6 187/2/6 189/2/6
f 189/2/6 187/2/6 190/2/6
f 187/4/6 188/4/6 191/4/6
f 190/2/6 187/2/6 191/2/6
f 191/4/6 188/4/6 192/4/6
f 185/2/6 189/2/6 193/2/6
f 189/4/6 190/4/6 194/4/6
f 193/2/6 189/2/6 194/2/6
f 190/2/6 191/2/6 195/2/6
f 194/4/6 190/4/6 195/4/6
f 191/2/6 192/2/6 195/2/6
f 195/2/6 192/2/6 196/2/6
f 196/2/6 192/2/6 197/2/6
f 193/4/6 194/4/6 198/4/6
f 194/2/6 195/2/6 199/2/6
f 198/4/6 194/4/6 199/4/6
f 195/2/6 196/2/6 199/2/6
f 196/4/6 197/4/6 200/4/6
f 199/2/6 196/2/6 200/2/6
f 200/4/6 197/4/6 201/4/6
f 202/3/6 203/3/6 204/3/6
f 204/3/6 203/3/6 205/3/6
