# MagicaVoxel @ Ephtracy

# group
o 

# material
mtllib flowersb.mtl
usemtl palette

# normals
vn -1 0 0
vn 1 0 0
vn 0 0 1
vn 0 0 -1
vn 0 -1 0
vn 0 1 0

# texcoords
vt 0.0644531 0.5
vt 0.0683594 0.5
vt 0.0878906 0.5

# verts
v -0.4 0 0.4
v -0.4 0 -0.4
v -0.4 0.1 0.4
v -0.4 0.1 -0.4
v -0.2 0.1 0.3
v -0.2 0.1 0.2
v -0.2 0.1 0.1
v -0.2 0.1 0
v -0.2 0.1 -0.1
v -0.2 0.1 -0.2
v -0.2 0.2 0.3
v -0.2 0.2 0.2
v -0.2 0.2 0.1
v -0.2 0.2 0
v -0.2 0.2 -0.1
v -0.2 0.2 -0.2
v -0.2 0.3 0.3
v -0.2 0.3 0.2
v -0.2 0.3 0.1
v -0.2 0.3 0
v -0.2 0.3 -0.1
v -0.2 0.3 -0.2
v 0 0.1 0.3
v 0 0.1 0.2
v 0 0.1 0.1
v 0 0.1 0
v 0 0.1 -0.1
v 0 0.1 -0.2
v 0 0.2 0.3
v 0 0.2 0.2
v 0 0.2 0.1
v 0 0.2 0
v 0 0.2 -0.1
v 0 0.2 -0.2
v 0 0.3 0.3
v 0 0.3 0.2
v 0 0.3 0.1
v 0 0.3 0
v 0 0.3 -0.1
v 0 0.3 -0.2
v 0.2 0.1 0.3
v 0.2 0.1 0.2
v 0.2 0.1 0.1
v 0.2 0.1 0
v 0.2 0.1 -0.1
v 0.2 0.1 -0.2
v 0.2 0.2 0.3
v 0.2 0.2 0.2
v 0.2 0.2 0.1
v 0.2 0.2 0
v 0.2 0.2 -0.1
v 0.2 0.2 -0.2
v 0.2 0.3 0.3
v 0.2 0.3 0.2
v 0.2 0.3 0.1
v 0.2 0.3 0
v 0.2 0.3 -0.1
v 0.2 0.3 -0.2
v -0.1 0.1 0.3
v -0.1 0.1 0.2
v -0.1 0.1 0.1
v -0.1 0.1 0
v -0.1 0.1 -0.1
v -0.1 0.1 -0.2
v -0.1 0.2 0.3
v -0.1 0.2 0.2
v -0.1 0.2 0.1
v -0.1 0.2 0
v -0.1 0.2 -0.1
v -0.1 0.2 -0.2
v -0.1 0.3 0.3
v -0.1 0.3 0.2
v -0.1 0.3 0.1
v -0.1 0.3 0
v -0.1 0.3 -0.1
v -0.1 0.3 -0.2
v 0.1 0.1 0.3
v 0.1 0.1 0.2
v 0.1 0.1 0.1
v 0.1 0.1 0
v 0.1 0.1 -0.1
v 0.1 0.1 -0.2
v 0.1 0.2 0.3
v 0.1 0.2 0.2
v 0.1 0.2 0.1
v 0.1 0.2 0
v 0.1 0.2 -0.1
v 0.1 0.2 -0.2
v 0.1 0.3 0.3
v 0.1 0.3 0.2
v 0.1 0.3 0.1
v 0.1 0.3 0
v 0.1 0.3 -0.1
v 0.1 0.3 -0.2
v 0.3 0.1 0.3
v 0.3 0.1 0.2
v 0.3 0.1 0.1
v 0.3 0.1 0
v 0.3 0.1 -0.1
v 0.3 0.1 -0.2
v 0.3 0.2 0.3
v 0.3 0.2 0.2
v 0.3 0.2 0.1
v 0.3 0.2 0
v 0.3 0.2 -0.1
v 0.3 0.2 -0.2
v 0.3 0.3 0.3
v 0.3 0.3 0.2
v 0.3 0.3 0.1
v 0.3 0.3 0
v 0.3 0.3 -0.1
v 0.3 0.3 -0.2
v 0.4 0 0.4
v 0.4 0 -0.4
v 0.4 0.1 0.4
v 0.4 0.1 -0.4
v -0.4 0 0.4
v -0.4 0.1 0.4
v 0.4 0 0.4
v 0.4 0.1 0.4
v -0.2 0.1 0.3
v -0.2 0.2 0.3
v -0.2 0.3 0.3
v -0.1 0.1 0.3
v -0.1 0.2 0.3
v -0.1 0.3 0.3
v 0 0.1 0.3
v 0 0.2 0.3
v 0 0.3 0.3
v 0.1 0.1 0.3
v 0.1 0.2 0.3
v 0.1 0.3 0.3
v 0.2 0.1 0.3
v 0.2 0.2 0.3
v 0.2 0.3 0.3
v 0.3 0.1 0.3
v 0.3 0.2 0.3
v 0.3 0.3 0.3
v -0.2 0.1 0.1
v -0.2 0.2 0.1
v -0.2 0.3 0.1
v -0.1 0.1 0.1
v -0.1 0.2 0.1
v -0.1 0.3 0.1
v 0 0.1 0.1
v 0 0.2 0.1
v 0 0.3 0.1
v 0.1 0.1 0.1
v 0.1 0.2 0.1
v 0.1 0.3 0.1
v 0.2 0.1 0.1
v 0.2 0.2 0.1
v 0.2 0.3 0.1
v 0.3 0.1 0.1
v 0.3 0.2 0.1
v 0.3 0.3 0.1
v -0.2 0.1 -0.1
v -0.2 0.2 -0.1
v -0.2 0.3 -0.1
v -0.1 0.1 -0.1
v -0.1 0.2 -0.1
v -0.1 0.3 -0.1
v 0 0.1 -0.1
v 0 0.2 -0.1
v 0 0.3 -0.1
v 0.1 0.1 -0.1
v 0.1 0.2 -0.1
v 0.1 0.3 -0.1
v 0.2 0.1 -0.1
v 0.2 0.2 -0.1
v 0.2 0.3 -0.1
v 0.3 0.1 -0.1
v 0.3 0.2 -0.1
v 0.3 0.3 -0.1
v -0.2 0.1 0.2
v -0.2 0.2 0.2
v -0.2 0.3 0.2
v -0.1 0.1 0.2
v -0.1 0.2 0.2
v -0.1 0.3 0.2
v 0 0.1 0.2
v 0 0.2 0.2
v 0 0.3 0.2
v 0.1 0.1 0.2
v 0.1 0.2 0.2
v 0.1 0.3 0.2
v 0.2 0.1 0.2
v 0.2 0.2 0.2
v 0.2 0.3 0.2
v 0.3 0.1 0.2
v 0.3 0.2 0.2
v 0.3 0.3 0.2
v -0.2 0.1 0
v -0.2 0.2 0
v -0.2 0.3 0
v -0.1 0.1 0
v -0.1 0.2 0
v -0.1 0.3 0
v 0 0.1 0
v 0 0.2 0
v 0 0.3 0
v 0.1 0.1 0
v 0.1 0.2 0
v 0.1 0.3 0
v 0.2 0.1 0
v 0.2 0.2 0
v 0.2 0.3 0
v 0.3 0.1 0
v 0.3 0.2 0
v 0.3 0.3 0
v -0.2 0.1 -0.2
v -0.2 0.2 -0.2
v -0.2 0.3 -0.2
v -0.1 0.1 -0.2
v -0.1 0.2 -0.2
v -0.1 0.3 -0.2
v 0 0.1 -0.2
v 0 0.2 -0.2
v 0 0.3 -0.2
v 0.1 0.1 -0.2
v 0.1 0.2 -0.2
v 0.1 0.3 -0.2
v 0.2 0.1 -0.2
v 0.2 0.2 -0.2
v 0.2 0.3 -0.2
v 0.3 0.1 -0.2
v 0.3 0.2 -0.2
v 0.3 0.3 -0.2
v -0.4 0 -0.4
v -0.4 0.1 -0.4
v 0.4 0 -0.4
v 0.4 0.1 -0.4
v -0.4 0 0.4
v 0.4 0 0.4
v -0.4 0 -0.4
v 0.4 0 -0.4
v -0.4 0.1 0.4
v 0.4 0.1 0.4
v -0.2 0.1 0.3
v -0.1 0.1 0.3
v 0 0.1 0.3
v 0.1 0.1 0.3
v 0.2 0.1 0.3
v 0.3 0.1 0.3
v -0.2 0.1 0.2
v -0.1 0.1 0.2
v 0 0.1 0.2
v 0.1 0.1 0.2
v 0.2 0.1 0.2
v 0.3 0.1 0.2
v -0.2 0.1 0.1
v -0.1 0.1 0.1
v 0 0.1 0.1
v 0.1 0.1 0.1
v 0.2 0.1 0.1
v 0.3 0.1 0.1
v -0.2 0.1 0
v -0.1 0.1 0
v 0 0.1 0
v 0.1 0.1 0
v 0.2 0.1 0
v 0.3 0.1 0
v -0.2 0.1 -0.1
v -0.1 0.1 -0.1
v 0 0.1 -0.1
v 0.1 0.1 -0.1
v 0.2 0.1 -0.1
v 0.3 0.1 -0.1
v -0.2 0.1 -0.2
v -0.1 0.1 -0.2
v 0 0.1 -0.2
v 0.1 0.1 -0.2
v 0.2 0.1 -0.2
v 0.3 0.1 -0.2
v -0.4 0.1 -0.4
v 0.4 0.1 -0.4
v -0.2 0.3 0.3
v -0.1 0.3 0.3
v 0 0.3 0.3
v 0.1 0.3 0.3
v 0.2 0.3 0.3
v 0.3 0.3 0.3
v -0.2 0.3 0.2
v -0.1 0.3 0.2
v 0 0.3 0.2
v 0.1 0.3 0.2
v 0.2 0.3 0.2
v 0.3 0.3 0.2
v -0.2 0.3 0.1
v -0.1 0.3 0.1
v 0 0.3 0.1
v 0.1 0.3 0.1
v 0.2 0.3 0.1
v 0.3 0.3 0.1
v -0.2 0.3 0
v -0.1 0.3 0
v 0 0.3 0
v 0.1 0.3 0
v 0.2 0.3 0
v 0.3 0.3 0
v -0.2 0.3 -0.1
v -0.1 0.3 -0.1
v 0 0.3 -0.1
v 0.1 0.3 -0.1
v 0.2 0.3 -0.1
v 0.3 0.3 -0.1
v -0.2 0.3 -0.2
v -0.1 0.3 -0.2
v 0 0.3 -0.2
v 0.1 0.3 -0.2
v 0.2 0.3 -0.2
v 0.3 0.3 -0.2

# faces
f 3/1/1 2/1/1 1/1/1
f 4/1/1 2/1/1 3/1/1
f 11/2/1 6/2/1 5/2/1
f 12/2/1 6/2/1 11/2/1
f 13/2/1 8/2/1 7/2/1
f 14/2/1 8/2/1 13/2/1
f 15/2/1 10/2/1 9/2/1
f 16/2/1 10/2/1 15/2/1
f 17/3/1 12/3/1 11/3/1
f 18/3/1 12/3/1 17/3/1
f 19/3/1 14/3/1 13/3/1
f 20/3/1 14/3/1 19/3/1
f 21/3/1 16/3/1 15/3/1
f 22/3/1 16/3/1 21/3/1
f 29/2/1 24/2/1 23/2/1
f 30/2/1 24/2/1 29/2/1
f 31/2/1 26/2/1 25/2/1
f 32/2/1 26/2/1 31/2/1
f 33/2/1 28/2/1 27/2/1
f 34/2/1 28/2/1 33/2/1
f 35/3/1 30/3/1 29/3/1
f 36/3/1 30/3/1 35/3/1
f 37/3/1 32/3/1 31/3/1
f 38/3/1 32/3/1 37/3/1
f 39/3/1 34/3/1 33/3/1
f 40/3/1 34/3/1 39/3/1
f 47/2/1 42/2/1 41/2/1
f 48/2/1 42/2/1 47/2/1
f 49/2/1 44/2/1 43/2/1
f 50/2/1 44/2/1 49/2/1
f 51/2/1 46/2/1 45/2/1
f 52/2/1 46/2/1 51/2/1
f 53/3/1 48/3/1 47/3/1
f 54/3/1 48/3/1 53/3/1
f 55/3/1 50/3/1 49/3/1
f 56/3/1 50/3/1 55/3/1
f 57/3/1 52/3/1 51/3/1
f 58/3/1 52/3/1 57/3/1
f 59/2/2 60/2/2 65/2/2
f 65/2/2 60/2/2 66/2/2
f 61/2/2 62/2/2 67/2/2
f 67/2/2 62/2/2 68/2/2
f 63/2/2 64/2/2 69/2/2
f 69/2/2 64/2/2 70/2/2
f 65/3/2 66/3/2 71/3/2
f 71/3/2 66/3/2 72/3/2
f 67/3/2 68/3/2 73/3/2
f 73/3/2 68/3/2 74/3/2
f 69/3/2 70/3/2 75/3/2
f 75/3/2 70/3/2 76/3/2
f 77/2/2 78/2/2 83/2/2
f 83/2/2 78/2/2 84/2/2
f 79/2/2 80/2/2 85/2/2
f 85/2/2 80/2/2 86/2/2
f 81/2/2 82/2/2 87/2/2
f 87/2/2 82/2/2 88/2/2
f 83/3/2 84/3/2 89/3/2
f 89/3/2 84/3/2 90/3/2
f 85/3/2 86/3/2 91/3/2
f 91/3/2 86/3/2 92/3/2
f 87/3/2 88/3/2 93/3/2
f 93/3/2 88/3/2 94/3/2
f 95/2/2 96/2/2 101/2/2
f 101/2/2 96/2/2 102/2/2
f 97/2/2 98/2/2 103/2/2
f 103/2/2 98/2/2 104/2/2
f 99/2/2 100/2/2 105/2/2
f 105/2/2 100/2/2 106/2/2
f 101/3/2 102/3/2 107/3/2
f 107/3/2 102/3/2 108/3/2
f 103/3/2 104/3/2 109/3/2
f 109/3/2 104/3/2 110/3/2
f 105/3/2 106/3/2 111/3/2
f 111/3/2 106/3/2 112/3/2
f 113/1/2 114/1/2 115/1/2
f 115/1/2 114/1/2 116/1/2
f 119/1/3 118/1/3 117/1/3
f 120/1/3 118/1/3 119/1/3
f 124/2/3 122/2/3 121/2/3
f 125/3/3 123/3/3 122/3/3
f 125/2/3 122/2/3 124/2/3
f 126/3/3 123/3/3 125/3/3
f 130/2/3 128/2/3 127/2/3
f 131/3/3 129/3/3 128/3/3
f 131/2/3 128/2/3 130/2/3
f 132/3/3 129/3/3 131/3/3
f 136/2/3 134/2/3 133/2/3
f 137/3/3 135/3/3 134/3/3
f 137/2/3 134/2/3 136/2/3
f 138/3/3 135/3/3 137/3/3
f 142/2/3 140/2/3 139/2/3
f 143/3/3 141/3/3 140/3/3
f 143/2/3 140/2/3 142/2/3
f 144/3/3 141/3/3 143/3/3
f 148/2/3 146/2/3 145/2/3
f 149/3/3 147/3/3 146/3/3
f 149/2/3 146/2/3 148/2/3
f 150/3/3 147/3/3 149/3/3
f 154/2/3 152/2/3 151/2/3
f 155/3/3 153/3/3 152/3/3
f 155/2/3 152/2/3 154/2/3
f 156/3/3 153/3/3 155/3/3
f 160/2/3 158/2/3 157/2/3
f 161/3/3 159/3/3 158/3/3
f 161/2/3 158/2/3 160/2/3
f 162/3/3 159/3/3 161/3/3
f 166/2/3 164/2/3 163/2/3
f 167/3/3 165/3/3 164/3/3
f 167/2/3 164/2/3 166/2/3
f 168/3/3 165/3/3 167/3/3
f 172/2/3 170/2/3 169/2/3
f 173/3/3 171/3/3 170/3/3
f 173/2/3 170/2/3 172/2/3
f 174/3/3 171/3/3 173/3/3
f 175/2/4 176/2/4 178/2/4
f 176/3/4 177/3/4 179/3/4
f 178/2/4 176/2/4 179/2/4
f 179/3/4 177/3/4 180/3/4
f 181/2/4 182/2/4 184/2/4
f 182/3/4 183/3/4 185/3/4
f 184/2/4 182/2/4 185/2/4
f 185/3/4 183/3/4 186/3/4
f 187/2/4 188/2/4 190/2/4
f 188/3/4 189/3/4 191/3/4
f 190/2/4 188/2/4 191/2/4
f 191/3/4 189/3/4 192/3/4
f 193/2/4 194/2/4 196/2/4
f 194/3/4 195/3/4 197/3/4
f 196/2/4 194/2/4 197/2/4
f 197/3/4 195/3/4 198/3/4
f 199/2/4 200/2/4 202/2/4
f 200/3/4 201/3/4 203/3/4
f 202/2/4 200/2/4 203/2/4
f 203/3/4 201/3/4 204/3/4
f 205/2/4 206/2/4 208/2/4
f 206/3/4 207/3/4 209/3/4
f 208/2/4 206/2/4 209/2/4
f 209/3/4 207/3/4 210/3/4
f 211/2/4 212/2/4 214/2/4
f 212/3/4 213/3/4 215/3/4
f 214/2/4 212/2/4 215/2/4
f 215/3/4 213/3/4 216/3/4
f 217/2/4 218/2/4 220/2/4
f 218/3/4 219/3/4 221/3/4
f 220/2/4 218/2/4 221/2/4
f 221/3/4 219/3/4 222/3/4
f 223/2/4 224/2/4 226/2/4
f 224/3/4 225/3/4 227/3/4
f 226/2/4 224/2/4 227/2/4
f 227/3/4 225/3/4 228/3/4
f 229/1/4 230/1/4 231/1/4
f 231/1/4 230/1/4 232/1/4
f 235/1/5 234/1/5 233/1/5
f 236/1/5 234/1/5 235/1/5
f 237/1/6 238/1/6 239/1/6
f 239/1/6 238/1/6 240/1/6
f 240/1/6 238/1/6 241/1/6
f 241/1/6 238/1/6 242/1/6
f 242/1/6 238/1/6 243/1/6
f 243/1/6 238/1/6 244/1/6
f 237/1/6 239/1/6 245/1/6
f 240/1/6 241/1/6 246/1/6
f 246/1/6 241/1/6 247/1/6
f 242/1/6 243/1/6 248/1/6
f 248/1/6 243/1/6 249/1/6
f 244/1/6 238/1/6 250/1/6
f 248/1/6 249/1/6 251/1/6
f 249/1/6 250/1/6 251/1/6
f 246/1/6 247/1/6 251/1/6
f 237/1/6 245/1/6 251/1/6
f 247/1/6 248/1/6 251/1/6
f 245/1/6 246/1/6 251/1/6
f 251/1/6 250/1/6 252/1/6
f 252/1/6 250/1/6 253/1/6
f 253/1/6 250/1/6 254/1/6
f 254/1/6 250/1/6 255/1/6
f 250/1/6 238/1/6 256/1/6
f 255/1/6 250/1/6 256/1/6
f 237/1/6 251/1/6 257/1/6
f 252/1/6 253/1/6 258/1/6
f 258/1/6 253/1/6 259/1/6
f 254/1/6 255/1/6 260/1/6
f 260/1/6 255/1/6 261/1/6
f 256/1/6 238/1/6 262/1/6
f 258/1/6 259/1/6 263/1/6
f 261/1/6 262/1/6 263/1/6
f 260/1/6 261/1/6 263/1/6
f 237/1/6 257/1/6 263/1/6
f 259/1/6 260/1/6 263/1/6
f 257/1/6 258/1/6 263/1/6
f 263/1/6 262/1/6 264/1/6
f 264/1/6 262/1/6 265/1/6
f 265/1/6 262/1/6 266/1/6
f 266/1/6 262/1/6 267/1/6
f 262/1/6 238/1/6 268/1/6
f 267/1/6 262/1/6 268/1/6
f 237/1/6 263/1/6 269/1/6
f 264/1/6 265/1/6 270/1/6
f 270/1/6 265/1/6 271/1/6
f 266/1/6 267/1/6 272/1/6
f 272/1/6 267/1/6 273/1/6
f 268/1/6 238/1/6 274/1/6
f 270/1/6 271/1/6 275/1/6
f 273/1/6 274/1/6 275/1/6
f 272/1/6 273/1/6 275/1/6
f 237/1/6 269/1/6 275/1/6
f 271/1/6 272/1/6 275/1/6
f 269/1/6 270/1/6 275/1/6
f 274/1/6 238/1/6 276/1/6
f 275/1/6 274/1/6 276/1/6
f 277/3/6 278/3/6 283/3/6
f 283/3/6 278/3/6 284/3/6
f 279/3/6 280/3/6 285/3/6
f 285/3/6 280/3/6 286/3/6
f 281/3/6 282/3/6 287/3/6
f 287/3/6 282/3/6 288/3/6
f 289/3/6 290/3/6 295/3/6
f 295/3/6 290/3/6 296/3/6
f 291/3/6 292/3/6 297/3/6
f 297/3/6 292/3/6 298/3/6
f 293/3/6 294/3/6 299/3/6
f 299/3/6 294/3/6 300/3/6
f 301/3/6 302/3/6 307/3/6
f 307/3/6 302/3/6 308/3/6
f 303/3/6 304/3/6 309/3/6
f 309/3/6 304/3/6 310/3/6
f 305/3/6 306/3/6 311/3/6
f 311/3/6 306/3/6 312/3/6
