# MagicaVoxel @ Ephtracy

# group
o 

# material
mtllib tree.mtl
usemtl palette

# normals
vn -1 0 0
vn 1 0 0
vn 0 0 1
vn 0 0 -1
vn 0 -1 0
vn 0 1 0

# texcoords
vt 0.0488281 0.5
vt 0.0644531 0.5
vt 0.0683594 0.5

# verts
v 1.2 0 2
v 1.2 0 1.2
v 1.2 0.1 2
v 1.2 0.1 1.2
v 1.3 0.5 1.8
v 1.3 0.5 1.4
v 1.3 0.6 1.8
v 1.3 0.6 1.7
v 1.3 0.6 1.5
v 1.3 0.6 1.4
v 1.3 0.7 1.7
v 1.3 0.7 1.5
v 1.4 0.3 1.7
v 1.4 0.3 1.5
v 1.4 0.4 1.8
v 1.4 0.4 1.7
v 1.4 0.4 1.5
v 1.4 0.4 1.4
v 1.4 0.5 1.9
v 1.4 0.5 1.8
v 1.4 0.5 1.4
v 1.4 0.5 1.3
v 1.4 0.6 1.9
v 1.4 0.6 1.8
v 1.4 0.6 1.7
v 1.4 0.6 1.5
v 1.4 0.6 1.4
v 1.4 0.6 1.3
v 1.4 0.7 1.8
v 1.4 0.7 1.7
v 1.4 0.7 1.5
v 1.4 0.7 1.4
v 1.4 0.8 1.7
v 1.4 0.8 1.5
v 1.5 0.1 1.7
v 1.5 0.1 1.5
v 1.5 0.3 1.8
v 1.5 0.3 1.7
v 1.5 0.3 1.5
v 1.5 0.3 1.4
v 1.5 0.4 1.8
v 1.5 0.4 1.7
v 1.5 0.4 1.5
v 1.5 0.4 1.4
v 1.5 0.6 1.9
v 1.5 0.6 1.8
v 1.5 0.6 1.4
v 1.5 0.6 1.3
v 1.5 0.7 1.9
v 1.5 0.7 1.8
v 1.5 0.7 1.7
v 1.5 0.7 1.5
v 1.5 0.7 1.4
v 1.5 0.7 1.3
v 1.5 0.8 1.8
v 1.5 0.8 1.7
v 1.5 0.8 1.5
v 1.5 0.8 1.4
v 1.7 0.1 1.7
v 1.7 0.1 1.5
v 1.7 0.3 1.8
v 1.7 0.3 1.7
v 1.7 0.3 1.5
v 1.7 0.3 1.4
v 1.7 0.4 1.8
v 1.7 0.4 1.7
v 1.7 0.4 1.5
v 1.7 0.4 1.4
v 1.7 0.6 1.9
v 1.7 0.6 1.8
v 1.7 0.6 1.4
v 1.7 0.6 1.3
v 1.7 0.7 1.9
v 1.7 0.7 1.8
v 1.7 0.7 1.7
v 1.7 0.7 1.5
v 1.7 0.7 1.4
v 1.7 0.7 1.3
v 1.7 0.8 1.8
v 1.7 0.8 1.7
v 1.7 0.8 1.5
v 1.7 0.8 1.4
v 1.8 0.3 1.7
v 1.8 0.3 1.5
v 1.8 0.4 1.8
v 1.8 0.4 1.7
v 1.8 0.4 1.5
v 1.8 0.4 1.4
v 1.8 0.5 1.9
v 1.8 0.5 1.8
v 1.8 0.5 1.4
v 1.8 0.5 1.3
v 1.8 0.6 1.9
v 1.8 0.6 1.8
v 1.8 0.6 1.7
v 1.8 0.6 1.5
v 1.8 0.6 1.4
v 1.8 0.6 1.3
v 1.8 0.7 1.8
v 1.8 0.7 1.7
v 1.8 0.7 1.5
v 1.8 0.7 1.4
v 1.8 0.8 1.7
v 1.8 0.8 1.5
v 1.9 0.5 1.8
v 1.9 0.5 1.4
v 1.9 0.6 1.8
v 1.9 0.6 1.7
v 1.9 0.6 1.5
v 1.9 0.6 1.4
v 1.9 0.7 1.7
v 1.9 0.7 1.5
v 2 0 2
v 2 0 1.2
v 2 0.1 2
v 2 0.1 1.2
v 1.2 0 2
v 1.2 0.1 2
v 2 0 2
v 2 0.1 2
v 1.4 0.5 1.9
v 1.4 0.6 1.9
v 1.5 0.6 1.9
v 1.5 0.7 1.9
v 1.7 0.6 1.9
v 1.7 0.7 1.9
v 1.8 0.5 1.9
v 1.8 0.6 1.9
v 1.3 0.5 1.8
v 1.3 0.6 1.8
v 1.4 0.4 1.8
v 1.4 0.5 1.8
v 1.4 0.6 1.8
v 1.4 0.7 1.8
v 1.5 0.3 1.8
v 1.5 0.4 1.8
v 1.5 0.6 1.8
v 1.5 0.7 1.8
v 1.5 0.8 1.8
v 1.7 0.3 1.8
v 1.7 0.4 1.8
v 1.7 0.6 1.8
v 1.7 0.7 1.8
v 1.7 0.8 1.8
v 1.8 0.4 1.8
v 1.8 0.5 1.8
v 1.8 0.6 1.8
v 1.8 0.7 1.8
v 1.9 0.5 1.8
v 1.9 0.6 1.8
v 1.3 0.6 1.7
v 1.3 0.7 1.7
v 1.4 0.3 1.7
v 1.4 0.4 1.7
v 1.4 0.6 1.7
v 1.4 0.7 1.7
v 1.4 0.8 1.7
v 1.5 0.1 1.7
v 1.5 0.3 1.7
v 1.5 0.4 1.7
v 1.5 0.7 1.7
v 1.5 0.8 1.7
v 1.7 0.1 1.7
v 1.7 0.3 1.7
v 1.7 0.4 1.7
v 1.7 0.7 1.7
v 1.7 0.8 1.7
v 1.8 0.3 1.7
v 1.8 0.4 1.7
v 1.8 0.6 1.7
v 1.8 0.7 1.7
v 1.8 0.8 1.7
v 1.9 0.6 1.7
v 1.9 0.7 1.7
v 1.3 0.6 1.5
v 1.3 0.7 1.5
v 1.4 0.3 1.5
v 1.4 0.4 1.5
v 1.4 0.6 1.5
v 1.4 0.7 1.5
v 1.4 0.8 1.5
v 1.5 0.1 1.5
v 1.5 0.3 1.5
v 1.5 0.4 1.5
v 1.5 0.7 1.5
v 1.5 0.8 1.5
v 1.7 0.1 1.5
v 1.7 0.3 1.5
v 1.7 0.4 1.5
v 1.7 0.7 1.5
v 1.7 0.8 1.5
v 1.8 0.3 1.5
v 1.8 0.4 1.5
v 1.8 0.6 1.5
v 1.8 0.7 1.5
v 1.8 0.8 1.5
v 1.9 0.6 1.5
v 1.9 0.7 1.5
v 1.3 0.5 1.4
v 1.3 0.6 1.4
v 1.4 0.4 1.4
v 1.4 0.5 1.4
v 1.4 0.6 1.4
v 1.4 0.7 1.4
v 1.5 0.3 1.4
v 1.5 0.4 1.4
v 1.5 0.6 1.4
v 1.5 0.7 1.4
v 1.5 0.8 1.4
v 1.7 0.3 1.4
v 1.7 0.4 1.4
v 1.7 0.6 1.4
v 1.7 0.7 1.4
v 1.7 0.8 1.4
v 1.8 0.4 1.4
v 1.8 0.5 1.4
v 1.8 0.6 1.4
v 1.8 0.7 1.4
v 1.9 0.5 1.4
v 1.9 0.6 1.4
v 1.4 0.5 1.3
v 1.4 0.6 1.3
v 1.5 0.6 1.3
v 1.5 0.7 1.3
v 1.7 0.6 1.3
v 1.7 0.7 1.3
v 1.8 0.5 1.3
v 1.8 0.6 1.3
v 1.2 0 1.2
v 1.2 0.1 1.2
v 2 0 1.2
v 2 0.1 1.2
v 1.2 0 2
v 2 0 2
v 1.2 0 1.2
v 2 0 1.2
v 1.5 0.3 1.8
v 1.7 0.3 1.8
v 1.4 0.3 1.7
v 1.5 0.3 1.7
v 1.7 0.3 1.7
v 1.8 0.3 1.7
v 1.4 0.3 1.5
v 1.5 0.3 1.5
v 1.7 0.3 1.5
v 1.8 0.3 1.5
v 1.5 0.3 1.4
v 1.7 0.3 1.4
v 1.4 0.4 1.8
v 1.5 0.4 1.8
v 1.7 0.4 1.8
v 1.8 0.4 1.8
v 1.4 0.4 1.7
v 1.5 0.4 1.7
v 1.7 0.4 1.7
v 1.8 0.4 1.7
v 1.4 0.4 1.5
v 1.5 0.4 1.5
v 1.7 0.4 1.5
v 1.8 0.4 1.5
v 1.4 0.4 1.4
v 1.5 0.4 1.4
v 1.7 0.4 1.4
v 1.8 0.4 1.4
v 1.4 0.5 1.9
v 1.8 0.5 1.9
v 1.3 0.5 1.8
v 1.4 0.5 1.8
v 1.8 0.5 1.8
v 1.9 0.5 1.8
v 1.3 0.5 1.4
v 1.4 0.5 1.4
v 1.8 0.5 1.4
v 1.9 0.5 1.4
v 1.4 0.5 1.3
v 1.8 0.5 1.3
v 1.2 0.1 2
v 2 0.1 2
v 1.5 0.1 1.7
v 1.7 0.1 1.7
v 1.5 0.1 1.5
v 1.7 0.1 1.5
v 1.2 0.1 1.2
v 2 0.1 1.2
v 1.4 0.6 1.9
v 1.5 0.6 1.9
v 1.7 0.6 1.9
v 1.8 0.6 1.9
v 1.3 0.6 1.8
v 1.4 0.6 1.8
v 1.5 0.6 1.8
v 1.7 0.6 1.8
v 1.8 0.6 1.8
v 1.9 0.6 1.8
v 1.3 0.6 1.7
v 1.4 0.6 1.7
v 1.8 0.6 1.7
v 1.9 0.6 1.7
v 1.3 0.6 1.5
v 1.4 0.6 1.5
v 1.8 0.6 1.5
v 1.9 0.6 1.5
v 1.3 0.6 1.4
v 1.4 0.6 1.4
v 1.5 0.6 1.4
v 1.7 0.6 1.4
v 1.8 0.6 1.4
v 1.9 0.6 1.4
v 1.4 0.6 1.3
v 1.5 0.6 1.3
v 1.7 0.6 1.3
v 1.8 0.6 1.3
v 1.5 0.7 1.9
v 1.7 0.7 1.9
v 1.4 0.7 1.8
v 1.5 0.7 1.8
v 1.7 0.7 1.8
v 1.8 0.7 1.8
v 1.3 0.7 1.7
v 1.4 0.7 1.7
v 1.5 0.7 1.7
v 1.7 0.7 1.7
v 1.8 0.7 1.7
v 1.9 0.7 1.7
v 1.3 0.7 1.5
v 1.4 0.7 1.5
v 1.5 0.7 1.5
v 1.7 0.7 1.5
v 1.8 0.7 1.5
v 1.9 0.7 1.5
v 1.4 0.7 1.4
v 1.5 0.7 1.4
v 1.7 0.7 1.4
v 1.8 0.7 1.4
v 1.5 0.7 1.3
v 1.7 0.7 1.3
v 1.5 0.8 1.8
v 1.7 0.8 1.8
v 1.4 0.8 1.7
v 1.5 0.8 1.7
v 1.7 0.8 1.7
v 1.8 0.8 1.7
v 1.4 0.8 1.5
v 1.5 0.8 1.5
v 1.7 0.8 1.5
v 1.8 0.8 1.5
v 1.5 0.8 1.4
v 1.7 0.8 1.4

# faces
f 3/2/1 2/2/1 1/2/1
f 4/2/1 2/2/1 3/2/1
f 7/3/1 6/3/1 5/3/1
f 8/3/1 6/3/1 7/3/1
f 9/3/1 6/3/1 8/3/1
f 10/3/1 6/3/1 9/3/1
f 11/3/1 9/3/1 8/3/1
f 12/3/1 9/3/1 11/3/1
f 16/3/1 14/3/1 13/3/1
f 17/3/1 14/3/1 16/3/1
f 20/3/1 16/3/1 15/3/1
f 20/3/1 18/3/1 17/3/1
f 20/3/1 17/3/1 16/3/1
f 21/3/1 18/3/1 20/3/1
f 23/3/1 20/3/1 19/3/1
f 24/3/1 20/3/1 23/3/1
f 27/3/1 22/3/1 21/3/1
f 28/3/1 22/3/1 27/3/1
f 29/3/1 25/3/1 24/3/1
f 30/3/1 25/3/1 29/3/1
f 31/3/1 27/3/1 26/3/1
f 32/3/1 27/3/1 31/3/1
f 33/3/1 31/3/1 30/3/1
f 34/3/1 31/3/1 33/3/1
f 38/1/1 36/1/1 35/1/1
f 39/1/1 36/1/1 38/1/1
f 41/3/1 38/3/1 37/3/1
f 42/3/1 38/3/1 41/3/1
f 43/3/1 40/3/1 39/3/1
f 44/3/1 40/3/1 43/3/1
f 49/3/1 46/3/1 45/3/1
f 50/3/1 46/3/1 49/3/1
f 53/3/1 48/3/1 47/3/1
f 54/3/1 48/3/1 53/3/1
f 55/3/1 51/3/1 50/3/1
f 56/3/1 51/3/1 55/3/1
f 57/3/1 53/3/1 52/3/1
f 58/3/1 53/3/1 57/3/1
f 59/1/2 60/1/2 62/1/2
f 62/1/2 60/1/2 63/1/2
f 61/3/2 62/3/2 65/3/2
f 65/3/2 62/3/2 66/3/2
f 63/3/2 64/3/2 67/3/2
f 67/3/2 64/3/2 68/3/2
f 69/3/2 70/3/2 73/3/2
f 73/3/2 70/3/2 74/3/2
f 71/3/2 72/3/2 77/3/2
f 77/3/2 72/3/2 78/3/2
f 74/3/2 75/3/2 79/3/2
f 79/3/2 75/3/2 80/3/2
f 76/3/2 77/3/2 81/3/2
f 81/3/2 77/3/2 82/3/2
f 83/3/2 84/3/2 86/3/2
f 86/3/2 84/3/2 87/3/2
f 85/3/2 86/3/2 90/3/2
f 87/3/2 88/3/2 90/3/2
f 86/3/2 87/3/2 90/3/2
f 90/3/2 88/3/2 91/3/2
f 89/3/2 90/3/2 93/3/2
f 93/3/2 90/3/2 94/3/2
f 91/3/2 92/3/2 97/3/2
f 97/3/2 92/3/2 98/3/2
f 94/3/2 95/3/2 99/3/2
f 99/3/2 95/3/2 100/3/2
f 96/3/2 97/3/2 101/3/2
f 101/3/2 97/3/2 102/3/2
f 100/3/2 101/3/2 103/3/2
f 103/3/2 101/3/2 104/3/2
f 105/3/2 106/3/2 107/3/2
f 107/3/2 106/3/2 108/3/2
f 108/3/2 106/3/2 109/3/2
f 109/3/2 106/3/2 110/3/2
f 108/3/2 109/3/2 111/3/2
f 111/3/2 109/3/2 112/3/2
f 113/2/2 114/2/2 115/2/2
f 115/2/2 114/2/2 116/2/2
f 119/2/3 118/2/3 117/2/3
f 120/2/3 118/2/3 119/2/3
f 123/3/3 122/3/3 121/3/3
f 125/3/3 123/3/3 121/3/3
f 125/3/3 124/3/3 123/3/3
f 126/3/3 124/3/3 125/3/3
f 127/3/3 125/3/3 121/3/3
f 128/3/3 125/3/3 127/3/3
f 132/3/3 130/3/3 129/3/3
f 133/3/3 130/3/3 132/3/3
f 136/3/3 132/3/3 131/3/3
f 137/3/3 134/3/3 133/3/3
f 138/3/3 134/3/3 137/3/3
f 140/3/3 136/3/3 135/3/3
f 141/3/3 132/3/3 136/3/3
f 141/3/3 136/3/3 140/3/3
f 143/3/3 139/3/3 138/3/3
f 144/3/3 139/3/3 143/3/3
f 145/3/3 132/3/3 141/3/3
f 146/3/3 132/3/3 145/3/3
f 147/3/3 143/3/3 142/3/3
f 148/3/3 143/3/3 147/3/3
f 149/3/3 147/3/3 146/3/3
f 150/3/3 147/3/3 149/3/3
f 155/3/3 152/3/3 151/3/3
f 156/3/3 152/3/3 155/3/3
f 159/3/3 154/3/3 153/3/3
f 160/3/3 154/3/3 159/3/3
f 161/3/3 157/3/3 156/3/3
f 162/3/3 157/3/3 161/3/3
f 163/1/3 159/1/3 158/1/3
f 164/1/3 159/1/3 163/1/3
f 168/3/3 165/3/3 164/3/3
f 169/3/3 165/3/3 168/3/3
f 171/3/3 167/3/3 166/3/3
f 172/3/3 167/3/3 171/3/3
f 173/3/3 171/3/3 170/3/3
f 174/3/3 171/3/3 173/3/3
f 175/3/4 176/3/4 179/3/4
f 179/3/4 176/3/4 180/3/4
f 177/3/4 178/3/4 183/3/4
f 183/3/4 178/3/4 184/3/4
f 180/3/4 181/3/4 185/3/4
f 185/3/4 181/3/4 186/3/4
f 182/1/4 183/1/4 187/1/4
f 187/1/4 183/1/4 188/1/4
f 188/3/4 189/3/4 192/3/4
f 192/3/4 189/3/4 193/3/4
f 190/3/4 191/3/4 195/3/4
f 195/3/4 191/3/4 196/3/4
f 194/3/4 195/3/4 197/3/4
f 197/3/4 195/3/4 198/3/4
f 199/3/4 200/3/4 202/3/4
f 202/3/4 200/3/4 203/3/4
f 201/3/4 202/3/4 206/3/4
f 203/3/4 204/3/4 207/3/4
f 207/3/4 204/3/4 208/3/4
f 205/3/4 206/3/4 210/3/4
f 206/3/4 202/3/4 211/3/4
f 210/3/4 206/3/4 211/3/4
f 208/3/4 209/3/4 213/3/4
f 213/3/4 209/3/4 214/3/4
f 211/3/4 202/3/4 215/3/4
f 215/3/4 202/3/4 216/3/4
f 212/3/4 213/3/4 217/3/4
f 217/3/4 213/3/4 218/3/4
f 216/3/4 217/3/4 219/3/4
f 219/3/4 217/3/4 220/3/4
f 221/3/4 222/3/4 223/3/4
f 221/3/4 223/3/4 225/3/4
f 223/3/4 224/3/4 225/3/4
f 225/3/4 224/3/4 226/3/4
f 221/3/4 225/3/4 227/3/4
f 227/3/4 225/3/4 228/3/4
f 229/2/4 230/2/4 231/2/4
f 231/2/4 230/2/4 232/2/4
f 235/2/5 234/2/5 233/2/5
f 236/2/5 234/2/5 235/2/5
f 240/3/5 238/3/5 237/3/5
f 241/3/5 238/3/5 240/3/5
f 243/3/5 240/3/5 239/3/5
f 244/3/5 240/3/5 243/3/5
f 245/3/5 242/3/5 241/3/5
f 246/3/5 242/3/5 245/3/5
f 247/3/5 245/3/5 244/3/5
f 248/3/5 245/3/5 247/3/5
f 253/3/5 250/3/5 249/3/5
f 254/3/5 250/3/5 253/3/5
f 255/3/5 252/3/5 251/3/5
f 256/3/5 252/3/5 255/3/5
f 261/3/5 258/3/5 257/3/5
f 262/3/5 258/3/5 261/3/5
f 263/3/5 260/3/5 259/3/5
f 264/3/5 260/3/5 263/3/5
f 268/3/5 266/3/5 265/3/5
f 269/3/5 266/3/5 268/3/5
f 271/3/5 268/3/5 267/3/5
f 272/3/5 268/3/5 271/3/5
f 273/3/5 270/3/5 269/3/5
f 274/3/5 270/3/5 273/3/5
f 275/3/5 273/3/5 272/3/5
f 276/3/5 273/3/5 275/3/5
f 277/2/6 278/2/6 279/2/6
f 279/2/6 278/2/6 280/2/6
f 277/2/6 279/2/6 281/2/6
f 280/2/6 278/2/6 282/2/6
f 277/2/6 281/2/6 283/2/6
f 281/2/6 282/2/6 283/2/6
f 282/2/6 278/2/6 284/2/6
f 283/2/6 282/2/6 284/2/6
f 285/3/6 286/3/6 290/3/6
f 290/3/6 286/3/6 291/3/6
f 287/3/6 288/3/6 292/3/6
f 292/3/6 288/3/6 293/3/6
f 289/3/6 290/3/6 295/3/6
f 295/3/6 290/3/6 296/3/6
f 293/3/6 294/3/6 297/3/6
f 297/3/6 294/3/6 298/3/6
f 299/3/6 300/3/6 303/3/6
f 303/3/6 300/3/6 304/3/6
f 301/3/6 302/3/6 307/3/6
f 307/3/6 302/3/6 308/3/6
f 304/3/6 305/3/6 309/3/6
f 309/3/6 305/3/6 310/3/6
f 306/3/6 307/3/6 311/3/6
f 311/3/6 307/3/6 312/3/6
f 313/3/6 314/3/6 316/3/6
f 316/3/6 314/3/6 317/3/6
f 315/3/6 316/3/6 320/3/6
f 320/3/6 316/3/6 321/3/6
f 317/3/6 318/3/6 322/3/6
f 322/3/6 318/3/6 323/3/6
f 319/3/6 320/3/6 325/3/6
f 325/3/6 320/3/6 326/3/6
f 323/3/6 324/3/6 329/3/6
f 329/3/6 324/3/6 330/3/6
f 326/3/6 327/3/6 331/3/6
f 331/3/6 327/3/6 332/3/6
f 328/3/6 329/3/6 333/3/6
f 333/3/6 329/3/6 334/3/6
f 332/3/6 333/3/6 335/3/6
f 335/3/6 333/3/6 336/3/6
f 337/3/6 338/3/6 340/3/6
f 340/3/6 338/3/6 341/3/6
f 339/3/6 340/3/6 343/3/6
f 341/3/6 342/3/6 343/3/6
f 340/3/6 341/3/6 343/3/6
f 343/3/6 342/3/6 344/3/6
f 344/3/6 342/3/6 345/3/6
f 345/3/6 342/3/6 346/3/6
f 344/3/6 345/3/6 347/3/6
f 347/3/6 345/3/6 348/3/6
